# Rhino

mtllib Reale Mutua_modelloAR.mtl
usemtl diffuse_223_0_0_255
v 0 0 -5.9551372528076172
v 77.640655517578125 0 -5.9551372528076172
v 77.640655517578125 0 -68.6915283203125
v 197.74299621582031 0 -68.6915283203125
v 197.74299621582031 0 -99.593681335449219
v 93.751945495605469 0 -99.593681335449219
v 93.751945495605469 0 -128.0103759765625
v 197.74299621582031 0 -128.0103759765625
v 197.74299621582031 0 -169.45350646972656
v 29.85064697265625 0 -169.45350646972656
v 29.85064697265625 0 -63.509563446044922
v -24.577608108520508 0 -63.509563446044922
v -29.459817886352539 0 -169.45350646972656
v -104.57448577880859 0 -169.45350646972656
v -104.57448577880859 0 -124.18832397460938
v -141.28816223144531 0 -124.18832397460938
v -141.28816223144531 0 -81.346748352050781
v -76.078605651855469 0 -81.360107421875
v -76.078605651855469 0 -8.438624382019043
v -133.17701721191406 0 -8.438624382019043
v -133.17701721191406 0 -4.4386239051818848
v -72.078605651855469 0 -4.4386239051818848
v -72.078605651855469 0 -85.360923767089844
v -137.28816223144531 3.1860256513027707E-06 -85.347564697265625
v -137.28816223144531 3.1860256513027707E-06 -120.18832397460938
v -100.57448577880859 3.1860256513027707E-06 -120.18832397460938
v -100.57448577880859 3.1860256513027707E-06 -165.45350646972656
v -33.279731750488281 3.1860256513027707E-06 -165.45350646972656
v -28.39752197265625 3.1860256513027707E-06 -59.509563446044922
v 33.85064697265625 3.1860256513027707E-06 -59.509563446044922
v 33.85064697265625 3.1860256513027707E-06 -165.45350646972656
v 193.74299621582031 3.1860256513027707E-06 -165.45350646972656
v 193.74299621582031 3.1860256513027707E-06 -132.0103759765625
v 89.751945495605469 3.1860256513027707E-06 -132.0103759765625
v 89.751945495605469 3.1860256513027707E-06 -95.593681335449219
v 193.74299621582031 3.1860256513027707E-06 -95.593681335449219
v 193.74299621582031 3.1860256513027707E-06 -72.6915283203125
v 73.640655517578125 3.1860256513027707E-06 -72.6915283203125
v 73.640655517578125 3.1860256513027707E-06 -9.9551372528076172
v 0 3.1860256513027707E-06 -9.9551372528076172
vt 0.4183734655380249 0.018813882023096085
vt 0.64289051294326782 0.018813882023096085
vt 0.64289051294326782 0.39154550433158875
vt 0.99019604921340942 0.39154550433158875
vt 0.99019604921340942 0.57514244318008423
vt 0.68948030471801758 0.57514244318008423
vt 0.68948030471801758 0.74397265911102295
vt 0.99019604921340942 0.74397265911102295
vt 0.99019604921340942 0.99019604921340942
vt 0.50469398498535156 0.99019604921340942
vt 0.50469398498535156 0.36075824499130249
vt 0.34730124473571777 0.36075824499130249
vt 0.33318313956260681 0.99019604921340942
vt 0.11597056686878204 0.99019604921340942
vt 0.11597056686878204 0.72126501798629761
vt 0.0098039219155907631 0.72126501798629761
vt 0.0098039219155907631 0.46673312783241272
vt 0.19837342202663422 0.46681249141693115
vt 0.19837342202663422 0.033568859100341797
vt 0.033259298652410507 0.033568859100341797
vt 0.033259298652410507 0.0098039219155907631
vt 0.20994040369987488 0.0098039219155907631
vt 0.20994040369987488 0.49058231711387634
vt 0.021370906382799149 0.49050292372703552
vt 0.021370906382799149 0.69750005006790161
vt 0.12753754854202271 0.69750005006790161
vt 0.12753754854202271 0.9664311408996582
vt 0.32213690876960754 0.9664311408996582
vt 0.33625501394271851 0.33699330687522888
vt 0.51626092195510864 0.33699330687522888
vt 0.51626092195510864 0.9664311408996582
vt 0.97862911224365234 0.9664311408996582
vt 0.97862911224365234 0.76773762702941895
vt 0.67791330814361572 0.76773762702941895
vt 0.67791330814361572 0.55137753486633301
vt 0.97862911224365234 0.55137753486633301
vt 0.97862911224365234 0.41531044244766235
vt 0.63132357597351074 0.41531044244766235
vt 0.63132357597351074 0.042578820139169693
vt 0.4183734655380249 0.042578820139169693
vn 0 1 0
vn 0 1 0
vn 0 1 0
vn 0 1 0
vn 0 1 0
vn 0 1 0
vn 0 1 0
vn 0 1 0
vn 0 1 0
vn 0 1 0
vn 0 1 0
vn 0 1 0
vn 0 1 0
vn 0 1 0
vn 0 1 0
vn 0 1 0
vn 0 1 0
vn 0 1 0
vn 0 1 0
vn 0 1 0
vn 0 1 0
vn 0 1 0
vn 0 1 0
vn 0 1 0
vn 0 1 0
vn 0 1 0
vn 0 1 0
vn 0 1 0
vn 0 1 0
vn 0 1 0
vn 0 1 0
vn 0 1 0
vn 0 1 0
vn 0 1 0
vn 0 1 0
vn 0 1 0
vn 0 1 0
vn 0 1 0
vn 0 1 0
vn 0 1 0
f 19/19/19 20/20/20 21/21/21
f 18/18/18 19/19/19 22/22/22 23/23/23
f 24/24/24 17/17/17 18/18/18
f 19/19/19 21/21/21 22/22/22
f 11/11/11 12/12/12 29/29/29
f 12/12/12 28/28/28 29/29/29
f 39/39/39 40/40/40 1/1/1 2/2/2
f 24/24/24 25/25/25 16/16/16 17/17/17
f 25/25/25 26/26/26 15/15/15 16/16/16
f 14/14/14 15/15/15 26/26/26 27/27/27
f 27/27/27 28/28/28 13/13/13 14/14/14
f 28/28/28 12/12/12 13/13/13
f 23/23/23 24/24/24 18/18/18
f 38/38/38 39/39/39 2/2/2 3/3/3
f 30/30/30 11/11/11 29/29/29
f 37/37/37 3/3/3 4/4/4
f 36/36/36 37/37/37 4/4/4 5/5/5
f 6/6/6 35/35/35 36/36/36
f 3/3/3 37/37/37 38/38/38
f 30/30/30 31/31/31 10/10/10 11/11/11
f 6/6/6 7/7/7 34/34/34 35/35/35
f 31/31/31 32/32/32 10/10/10
f 33/33/33 34/34/34 7/7/7 8/8/8
f 32/32/32 33/33/33 8/8/8 9/9/9
f 10/10/10 32/32/32 9/9/9
f 5/5/5 6/6/6 36/36/36
usemtl diffuse_223_0_0_255
v -133.17701632350895 0 -4.4386239413239252
v -72.078607533382481 0 -4.4386239413239252
v -72.078607533382481 0 -85.360923582755106
v -137.28816275142324 3.1860256513027707E-06 -85.347564407111349
v -137.28816275142324 3.1860256513027707E-06 -120.1883227940605
v -100.57448482249715 3.1860256513027707E-06 -120.1883227940605
v -100.57448482249715 3.1860256513027707E-06 -165.45350455282463
v -33.279730703602425 3.1860256513027707E-06 -165.45350455282463
v -28.397521363227142 3.1860256513027707E-06 -59.509561866681757
v 33.850647726557725 3.1860256513027707E-06 -59.509561866681757
v 33.850647726557725 3.1860256513027707E-06 -165.4535045528246
v 193.74300362384832 3.1860256513027707E-06 -165.45350455282463
v 193.74300362384832 3.1860256513027707E-06 -132.01037057125419
v 89.751944673854723 3.1860256513027707E-06 -132.01037057125419
v 89.751944673854723 3.1860256513027707E-06 -95.593678816947985
v 193.74300362384832 3.1860256513027707E-06 -95.593678816947985
v 193.74300362384832 3.1860256513027707E-06 -72.691527085694958
v 73.640653850616303 3.1860256513027707E-06 -72.691527085694958
v 73.640653850616303 3.1860256513027707E-06 -9.9551370618730033
v 0 3.1860256513027707E-06 -9.9551370618730033
cstype bspline
deg 1
curv 0 1382.7089702280327 41 42 43 44 45 46 47 48 49 50 51 52 53 54 55 56 57 58 59 60
parm u 0 0 61.09840879012647 142.02070843155764 207.23026501801428 242.07102340496343 278.78470133388953 324.04988309265366 391.34463721154839 497.40101354002741 559.64918262981223 665.59312531595504 825.48548121324563 858.92861519481608 962.91967414480973 999.33636589911589 1103.3274248491095 1126.2295765803626 1246.3319263535946 1309.0683163774165 1382.7089702280327 1382.7089702280327
end
usemtl diffuse_223_0_0_255
v -133.17701632350895 0 -8.4386239413239252
v -76.078607533382481 0 -8.438623941323927
v -76.078607533382481 0 -81.360104037581692
v -141.28816275142324 0 -81.346744861937964
v -141.28816275142324 0 -124.1883227940605
v -104.57448482249715 0 -124.1883227940605
v -104.57448482249715 0 -169.45350455282463
v -29.45981747693196 0 -169.45350455282463
v -24.577608136556677 0 -63.509561866681778
v 29.850647726557725 0 -63.509561866681764
v 29.850647726557725 0 -169.4535045528246
v 197.74300362384832 0 -169.45350455282463
v 197.74300362384832 0 -128.01037057125419
v 93.751944673854723 0 -128.01037057125419
v 93.751944673854723 0 -99.593678816948
v 197.74300362384832 0 -99.593678816947985
v 197.74300362384832 0 -68.691527085694958
v 77.640653850616303 0 -68.691527085695071
v 77.640653850616303 0 -5.9551370618730033
v 0 0 -5.9551370618730033
cstype bspline
deg 1
curv 0 615.83087973565466 61 62 63 64 65 66 67 68 69 70 71 72 73 74 75 76 77 78 79 80
parm u 0 0 57.09840879012647 130.01988888638422 191.22862592766742 195.22944547284084 199.22944547284087 240.49462723160494 244.49462723160497 248.31454045827539 302.74279632138979 404.68673900753259 408.68673900753254 412.68673900753259 416.68673900753259 445.10343076183869 545.09448971183247 549.09448971183247 553.09448971183247 611.83087973565466 615.83087973565466 615.83087973565466
end
usemtl diffuse_128_128_128_255
v 0 0 -370.2715547770058
v 601.60121623624582 0 -370.2715547770058
v 601.60121623624582 0 0
v 0 0 0
cstype bspline
deg 1
curv 0 4 81 82 83 84 81
parm u 0 0 1 2 3 4 4
end
